<svg width="36" height="36" viewBox="0 0 36 36" fill="none" xmlns="http://www.w3.org/2000/svg">
<rect width="36" height="36" rx="18" fill="#D764D7"/>
<path d="M15.9668 23.6249C15.6251 23.6249 15.3418 23.3416 15.3418 22.9999V18.8333C15.3418 18.4916 15.6251 18.2083 15.9668 18.2083C16.3085 18.2083 16.5918 18.4916 16.5918 18.8333V22.9999C16.5918 23.3416 16.3085 23.6249 15.9668 23.6249Z" fill="#292D32"/>
<path d="M18.0007 21.5417H13.834C13.4923 21.5417 13.209 21.2584 13.209 20.9167C13.209 20.5751 13.4923 20.2917 13.834 20.2917H18.0007C18.3423 20.2917 18.6257 20.5751 18.6257 20.9167C18.6257 21.2584 18.3423 21.5417 18.0007 21.5417Z" fill="#292D32"/>
<path d="M14.666 12.7917C14.3243 12.7917 14.041 12.5084 14.041 12.1667V9.66675C14.041 9.32508 14.3243 9.04175 14.666 9.04175C15.0077 9.04175 15.291 9.32508 15.291 9.66675V12.1667C15.291 12.5084 15.0077 12.7917 14.666 12.7917Z" fill="#292D32"/>
<path d="M21.334 12.7917C20.9923 12.7917 20.709 12.5084 20.709 12.1667V9.66675C20.709 9.32508 20.9923 9.04175 21.334 9.04175C21.6757 9.04175 21.959 9.32508 21.959 9.66675V12.1667C21.959 12.5084 21.6757 12.7917 21.334 12.7917Z" fill="#292D32"/>
<path d="M15.374 27.0084C13.3157 27.0084 11.9574 26.5584 11.1074 25.5917C10.124 24.4834 9.9657 22.8251 9.93237 21.3501L9.82404 16.2084C9.7407 12.2667 11.049 10.6251 14.4657 10.3667L21.1657 10.2334C21.1824 10.2334 21.1907 10.2334 21.199 10.2334C24.624 10.3501 25.9907 11.9334 26.074 15.8834L26.174 21.0251C26.2074 22.5001 26.1074 24.1667 25.174 25.3084C24.324 26.3501 22.8907 26.8584 20.6657 26.9084L15.6657 27.0084C15.5657 27.0084 15.4657 27.0084 15.374 27.0084ZM21.1657 11.4751L14.524 11.6084C12.1907 11.7917 10.999 12.5417 11.074 16.1834L11.1824 21.3251C11.2157 23.0917 11.474 24.1251 12.0407 24.7667C12.674 25.4834 13.8157 25.8001 15.649 25.7584L20.649 25.6584C22.474 25.6251 23.6074 25.2584 24.2157 24.5167C24.7574 23.8584 24.974 22.8167 24.9324 21.0501L24.8324 15.9084C24.749 12.2751 23.5324 11.5584 21.1657 11.4751Z" fill="#292D32"/>
</svg>
