<svg width="32" height="32" viewBox="0 0 32 32" fill="none" xmlns="http://www.w3.org/2000/svg">
<path d="M16.0006 3.99958C13.6272 3.99958 11.3071 4.70337 9.33371 6.02194C7.36032 7.34052 5.82225 9.21466 4.914 11.4074C4.00575 13.6001 3.76811 16.0129 4.23113 18.3407C4.69416 20.6684 5.83704 22.8066 7.51527 24.4849C9.1935 26.1631 11.3317 27.306 13.6595 27.769C15.9872 28.232 18.4 27.9944 20.5928 27.0861C22.7855 26.1779 24.6596 24.6398 25.9782 22.6664C27.2968 20.693 28.0006 18.373 28.0006 15.9996C27.9969 12.8181 26.7315 9.76797 24.4818 7.51832C22.2322 5.26867 19.182 4.00322 16.0006 3.99958ZM16.0006 25.9996C14.0227 25.9996 12.0893 25.4131 10.4449 24.3143C8.80036 23.2155 7.51864 21.6537 6.76176 19.8264C6.00488 17.9992 5.80685 15.9885 6.1927 14.0487C6.57856 12.1089 7.53096 10.327 8.92949 8.92851C10.328 7.52999 12.1098 6.57758 14.0497 6.19173C15.9895 5.80587 18.0001 6.00391 19.8274 6.76078C21.6547 7.51766 23.2164 8.79939 24.3153 10.4439C25.4141 12.0884 26.0006 14.0218 26.0006 15.9996C25.9976 18.6508 24.9431 21.1926 23.0683 23.0674C21.1936 24.9421 18.6518 25.9966 16.0006 25.9996ZM7.70806 3.70708L3.70806 7.70708C3.61515 7.79999 3.50485 7.87369 3.38345 7.92397C3.26206 7.97426 3.13195 8.00014 3.00056 8.00014C2.86916 8.00014 2.73905 7.97426 2.61766 7.92397C2.49627 7.87369 2.38597 7.79999 2.29306 7.70708C2.10542 7.51944 2 7.26494 2 6.99958C2 6.73422 2.10542 6.47972 2.29306 6.29208L6.29306 2.29208C6.38597 2.19917 6.49627 2.12547 6.61766 2.07519C6.73905 2.0249 6.86916 1.99902 7.00056 1.99902C7.13195 1.99902 7.26206 2.0249 7.38345 2.07519C7.50485 2.12547 7.61515 2.19917 7.70806 2.29208C7.80097 2.38499 7.87467 2.49529 7.92495 2.61668C7.97523 2.73808 8.00111 2.86818 8.00111 2.99958C8.00111 3.13097 7.97523 3.26108 7.92495 3.38248C7.87467 3.50387 7.80097 3.61417 7.70806 3.70708ZM29.7081 7.70708C29.6152 7.80006 29.5049 7.87381 29.3835 7.92414C29.2621 7.97446 29.132 8.00037 29.0006 8.00037C28.8691 8.00037 28.739 7.97446 28.6176 7.92414C28.4962 7.87381 28.3859 7.80006 28.2931 7.70708L24.2931 3.70708C24.1054 3.51944 24 3.26494 24 2.99958C24 2.73422 24.1054 2.47972 24.2931 2.29208C24.4807 2.10444 24.7352 1.99902 25.0006 1.99902C25.2659 1.99902 25.5204 2.10444 25.7081 2.29208L29.7081 6.29208C29.801 6.38495 29.8748 6.49524 29.9251 6.61664C29.9754 6.73804 30.0013 6.86816 30.0013 6.99958C30.0013 7.13099 29.9754 7.26112 29.9251 7.38252C29.8748 7.50392 29.801 7.61421 29.7081 7.70708ZM23.0006 14.9996C23.2658 14.9996 23.5201 15.1049 23.7077 15.2925C23.8952 15.48 24.0006 15.7344 24.0006 15.9996C24.0006 16.2648 23.8952 16.5192 23.7077 16.7067C23.5201 16.8942 23.2658 16.9996 23.0006 16.9996H16.0006C15.7353 16.9996 15.481 16.8942 15.2934 16.7067C15.1059 16.5192 15.0006 16.2648 15.0006 15.9996V8.99958C15.0006 8.73436 15.1059 8.48001 15.2934 8.29247C15.481 8.10494 15.7353 7.99958 16.0006 7.99958C16.2658 7.99958 16.5201 8.10494 16.7077 8.29247C16.8952 8.48001 17.0006 8.73436 17.0006 8.99958V14.9996H23.0006Z" fill="#8E2D8E"/>
</svg>
