<svg width="23" height="23" viewBox="0 0 23 23" fill="none" xmlns="http://www.w3.org/2000/svg">
<path opacity="0.4" d="M18.9415 9.41474H16.2713C14.0816 9.41474 12.2984 7.63153 12.2984 5.44179V2.7716C12.2984 2.26343 11.8826 1.84766 11.3744 1.84766H7.4569C4.61116 1.84766 2.31055 3.69554 2.31055 6.99401V15.1801C2.31055 18.4786 4.61116 20.3265 7.4569 20.3265H14.7191C17.5648 20.3265 19.8654 18.4786 19.8654 15.1801V10.3387C19.8654 9.83052 19.4497 9.41474 18.9415 9.41474Z" fill="#D764D7"/>
<path d="M14.5973 2.04185C14.2185 1.66304 13.5625 1.92174 13.5625 2.44839V5.67294C13.5625 7.0219 14.7082 8.13987 16.1033 8.13987C16.9811 8.14911 18.2007 8.14911 19.2447 8.14911C19.7714 8.14911 20.0486 7.53007 19.679 7.16049C18.3485 5.82078 15.9647 3.40929 14.5973 2.04185Z" fill="#D764D7"/>
<path d="M12.4729 12.7043H6.92928C6.55047 12.7043 6.23633 12.3901 6.23633 12.0113C6.23633 11.6325 6.55047 11.3184 6.92928 11.3184H12.4729C12.8518 11.3184 13.1659 11.6325 13.1659 12.0113C13.1659 12.3901 12.8518 12.7043 12.4729 12.7043Z" fill="#D764D7"/>
<path d="M10.6251 16.4001H6.92928C6.55047 16.4001 6.23633 16.0859 6.23633 15.7071C6.23633 15.3283 6.55047 15.0142 6.92928 15.0142H10.6251C11.0039 15.0142 11.318 15.3283 11.318 15.7071C11.318 16.0859 11.0039 16.4001 10.6251 16.4001Z" fill="#D764D7"/>
</svg>
