<svg width="24" height="24" viewBox="0 0 24 24" fill="none" xmlns="http://www.w3.org/2000/svg">
<g style="mix-blend-mode:multiply">
<rect width="24" height="24" rx="12" fill="#EDEDED"/>
<path d="M10 8.875C9.795 8.875 9.625 8.705 9.625 8.5V7C9.625 6.795 9.795 6.625 10 6.625C10.205 6.625 10.375 6.795 10.375 7V8.5C10.375 8.705 10.205 8.875 10 8.875Z" fill="#350035"/>
<path d="M14 8.875C13.795 8.875 13.625 8.705 13.625 8.5V7C13.625 6.795 13.795 6.625 14 6.625C14.205 6.625 14.375 6.795 14.375 7V8.5C14.375 8.705 14.205 8.875 14 8.875Z" fill="#350035"/>
<path d="M14 17.375H10C8.175 17.375 7.125 16.325 7.125 14.5V10.25C7.125 8.425 8.175 7.375 10 7.375H14C15.825 7.375 16.875 8.425 16.875 10.25V14.5C16.875 16.325 15.825 17.375 14 17.375ZM10 8.125C8.57 8.125 7.875 8.82 7.875 10.25V14.5C7.875 15.93 8.57 16.625 10 16.625H14C15.43 16.625 16.125 15.93 16.125 14.5V10.25C16.125 8.82 15.43 8.125 14 8.125H10Z" fill="#292D32"/>
<path d="M14 11.875H10C9.795 11.875 9.625 11.705 9.625 11.5C9.625 11.295 9.795 11.125 10 11.125H14C14.205 11.125 14.375 11.295 14.375 11.5C14.375 11.705 14.205 11.875 14 11.875Z" fill="#292D32"/>
<path d="M12 14.375H10C9.795 14.375 9.625 14.205 9.625 14C9.625 13.795 9.795 13.625 10 13.625H12C12.205 13.625 12.375 13.795 12.375 14C12.375 14.205 12.205 14.375 12 14.375Z" fill="#292D32"/>
</g>
</svg>
