<svg width="32" height="32" viewBox="0 0 32 32" fill="none" xmlns="http://www.w3.org/2000/svg">
<g style="mix-blend-mode:multiply">
<rect width="32" height="32" rx="16" fill="#EDEDED"/>
<path d="M22.0007 15.8334H10.0007C9.36065 15.8334 8.83398 15.3068 8.83398 14.6668V12.4534C8.83398 12.0001 9.1473 11.5401 9.5673 11.3734L15.5673 8.97344C15.8206 8.87344 16.1807 8.87344 16.434 8.97344L22.434 11.3734C22.854 11.5401 23.1673 12.0068 23.1673 12.4534V14.6668C23.1673 15.3068 22.6406 15.8334 22.0007 15.8334ZM16.0007 9.89344C15.974 9.89344 15.9473 9.89341 15.934 9.90007L9.94063 12.3001C9.90063 12.3201 9.83398 12.4068 9.83398 12.4534V14.6668C9.83398 14.7601 9.90732 14.8334 10.0007 14.8334H22.0007C22.094 14.8334 22.1673 14.7601 22.1673 14.6668V12.4534C22.1673 12.4068 22.1073 12.3201 22.0607 12.3001L16.0607 9.90007C16.0473 9.89341 16.0273 9.89344 16.0007 9.89344Z" fill="#350035"/>
<path d="M22.6673 23.1667H9.33398C9.06065 23.1667 8.83398 22.94 8.83398 22.6667V20.6667C8.83398 20.0267 9.36065 19.5 10.0007 19.5H22.0007C22.6406 19.5 23.1673 20.0267 23.1673 20.6667V22.6667C23.1673 22.94 22.9406 23.1667 22.6673 23.1667ZM9.83398 22.1667H22.1673V20.6667C22.1673 20.5733 22.094 20.5 22.0007 20.5H10.0007C9.90732 20.5 9.83398 20.5733 9.83398 20.6667V22.1667Z" fill="#350035"/>
<path d="M10.668 20.4997C10.3946 20.4997 10.168 20.273 10.168 19.9997V15.333C10.168 15.0597 10.3946 14.833 10.668 14.833C10.9413 14.833 11.168 15.0597 11.168 15.333V19.9997C11.168 20.273 10.9413 20.4997 10.668 20.4997Z" fill="#292D32"/>
<path d="M13.334 20.4997C13.0607 20.4997 12.834 20.273 12.834 19.9997V15.333C12.834 15.0597 13.0607 14.833 13.334 14.833C13.6073 14.833 13.834 15.0597 13.834 15.333V19.9997C13.834 20.273 13.6073 20.4997 13.334 20.4997Z" fill="#292D32"/>
<path d="M16 20.4997C15.7267 20.4997 15.5 20.273 15.5 19.9997V15.333C15.5 15.0597 15.7267 14.833 16 14.833C16.2733 14.833 16.5 15.0597 16.5 15.333V19.9997C16.5 20.273 16.2733 20.4997 16 20.4997Z" fill="#292D32"/>
<path d="M18.666 20.4997C18.3927 20.4997 18.166 20.273 18.166 19.9997V15.333C18.166 15.0597 18.3927 14.833 18.666 14.833C18.9393 14.833 19.166 15.0597 19.166 15.333V19.9997C19.166 20.273 18.9393 20.4997 18.666 20.4997Z" fill="#292D32"/>
<path d="M21.332 20.4997C21.0587 20.4997 20.832 20.273 20.832 19.9997V15.333C20.832 15.0597 21.0587 14.833 21.332 14.833C21.6054 14.833 21.832 15.0597 21.832 15.333V19.9997C21.832 20.273 21.6054 20.4997 21.332 20.4997Z" fill="#292D32"/>
<path d="M23.3327 23.167H8.66602C8.39268 23.167 8.16602 22.9403 8.16602 22.667C8.16602 22.3937 8.39268 22.167 8.66602 22.167H23.3327C23.606 22.167 23.8327 22.3937 23.8327 22.667C23.8327 22.9403 23.606 23.167 23.3327 23.167Z" fill="#292D32"/>
<path d="M16 14.167C15.1733 14.167 14.5 13.4937 14.5 12.667C14.5 11.8403 15.1733 11.167 16 11.167C16.8267 11.167 17.5 11.8403 17.5 12.667C17.5 13.4937 16.8267 14.167 16 14.167ZM16 12.167C15.7267 12.167 15.5 12.3937 15.5 12.667C15.5 12.9403 15.7267 13.167 16 13.167C16.2733 13.167 16.5 12.9403 16.5 12.667C16.5 12.3937 16.2733 12.167 16 12.167Z" fill="#292D32"/>
</g>
</svg>
