<svg width="32" height="32" viewBox="0 0 32 32" fill="none" xmlns="http://www.w3.org/2000/svg">
<g style="mix-blend-mode:multiply">
<rect width="32" height="32" rx="16" fill="#EDEDED"/>
<path d="M15.346 21.5H12.9993C12.4993 21.5 12.1327 21.48 11.8193 21.4333C9.59935 21.1867 9.16602 19.8667 9.16602 17.6667V14.3333C9.16602 12.1333 9.60602 10.8067 11.8393 10.56C12.1327 10.52 12.4993 10.5 12.9993 10.5H15.306C15.5793 10.5 15.806 10.7267 15.806 11C15.806 11.2733 15.5793 11.5 15.306 11.5H12.9993C12.546 11.5 12.226 11.52 11.966 11.5533C10.6127 11.7 10.166 12.1267 10.166 14.3333V17.6667C10.166 19.8733 10.6127 20.2933 11.946 20.4467C12.226 20.4867 12.546 20.5 12.9993 20.5H15.346C15.6193 20.5 15.846 20.7267 15.846 21C15.846 21.2733 15.6193 21.5 15.346 21.5Z" fill="#350035"/>
<path d="M19.0003 21.5H18.0137C17.7403 21.5 17.5137 21.2733 17.5137 21C17.5137 20.7267 17.7403 20.5 18.0137 20.5H19.0003C19.4537 20.5 19.7737 20.48 20.0337 20.4467C21.387 20.3 21.8337 19.8733 21.8337 17.6667V14.3333C21.8337 12.1267 21.387 11.7067 20.0537 11.5533C19.7737 11.5133 19.4537 11.5 19.0003 11.5H18.0137C17.7403 11.5 17.5137 11.2733 17.5137 11C17.5137 10.7267 17.7403 10.5 18.0137 10.5H19.0003C19.5003 10.5 19.867 10.52 20.1803 10.5667C22.4003 10.8133 22.8337 12.1333 22.8337 14.3333V17.6667C22.8337 19.8667 22.3937 21.1933 20.1603 21.44C19.867 21.48 19.5003 21.5 19.0003 21.5Z" fill="#350035"/>
<path d="M18 23.1663C17.7267 23.1663 17.5 22.9397 17.5 22.6663V9.33301C17.5 9.05967 17.7267 8.83301 18 8.83301C18.2733 8.83301 18.5 9.05967 18.5 9.33301V22.6663C18.5 22.9397 18.2733 23.1663 18 23.1663Z" fill="#292D32"/>
<path d="M12.4674 16.6668C12.3808 16.6668 12.2941 16.6468 12.2141 16.6135C12.1341 16.5801 12.0608 16.5335 11.9941 16.4735C11.9341 16.4068 11.8808 16.3335 11.8474 16.2535C11.8141 16.1735 11.8008 16.0868 11.8008 16.0001C11.8008 15.8268 11.8741 15.6535 11.9941 15.5268C12.2408 15.2801 12.6874 15.2801 12.9408 15.5268C13.0608 15.6535 13.1341 15.8268 13.1341 16.0001C13.1341 16.0868 13.1141 16.1735 13.0808 16.2535C13.0474 16.3335 13.0008 16.4068 12.9408 16.4735C12.8741 16.5335 12.8008 16.5801 12.7208 16.6135C12.6408 16.6468 12.5541 16.6668 12.4674 16.6668Z" fill="#292D32"/>
<path d="M15.1335 16.6668C15.0468 16.6668 14.9601 16.6468 14.8801 16.6135C14.8001 16.5801 14.7268 16.5335 14.6601 16.4735C14.6001 16.4068 14.5535 16.3335 14.5135 16.2535C14.4868 16.1735 14.4668 16.0868 14.4668 16.0001C14.4668 15.8268 14.5401 15.6535 14.6601 15.5268C14.9068 15.2801 15.3601 15.2801 15.6068 15.5268C15.7268 15.6535 15.8001 15.8268 15.8001 16.0001C15.8001 16.0868 15.7801 16.1735 15.7468 16.2535C15.7135 16.3335 15.6668 16.4068 15.6068 16.4735C15.5401 16.5335 15.4668 16.5801 15.3868 16.6135C15.3068 16.6468 15.2201 16.6668 15.1335 16.6668Z" fill="#292D32"/>
</g>
</svg>
