<svg width="48" height="48" viewBox="0 0 48 48" fill="none" xmlns="http://www.w3.org/2000/svg">
<rect width="48" height="48" rx="24" fill="#30B0C7" fill-opacity="0.25"/>
<path d="M25.2806 24.5306L21.5306 28.2806C21.4609 28.3503 21.3782 28.4056 21.2872 28.4433C21.1961 28.481 21.0985 28.5004 21 28.5004C20.9015 28.5004 20.8039 28.481 20.7128 28.4433C20.6218 28.4056 20.5391 28.3503 20.4694 28.2806C20.3997 28.2109 20.3444 28.1282 20.3067 28.0372C20.269 27.9461 20.2496 27.8485 20.2496 27.75C20.2496 27.6515 20.269 27.5539 20.3067 27.4628C20.3444 27.3718 20.3997 27.2891 20.4694 27.2194L22.9397 24.75H14.25C14.0511 24.75 13.8603 24.671 13.7197 24.5303C13.579 24.3897 13.5 24.1989 13.5 24C13.5 23.8011 13.579 23.6103 13.7197 23.4697C13.8603 23.329 14.0511 23.25 14.25 23.25H22.9397L20.4694 20.7806C20.3286 20.6399 20.2496 20.449 20.2496 20.25C20.2496 20.051 20.3286 19.8601 20.4694 19.7194C20.6101 19.5786 20.801 19.4996 21 19.4996C21.199 19.4996 21.3899 19.5786 21.5306 19.7194L25.2806 23.4694C25.3504 23.539 25.4057 23.6217 25.4434 23.7128C25.4812 23.8038 25.5006 23.9014 25.5006 24C25.5006 24.0986 25.4812 24.1962 25.4434 24.2872C25.4057 24.3783 25.3504 24.461 25.2806 24.5306ZM30 15H24.75C24.5511 15 24.3603 15.079 24.2197 15.2197C24.079 15.3603 24 15.5511 24 15.75C24 15.9489 24.079 16.1397 24.2197 16.2803C24.3603 16.421 24.5511 16.5 24.75 16.5H30V31.5H24.75C24.5511 31.5 24.3603 31.579 24.2197 31.7197C24.079 31.8603 24 32.0511 24 32.25C24 32.4489 24.079 32.6397 24.2197 32.7803C24.3603 32.921 24.5511 33 24.75 33H30C30.3978 33 30.7794 32.842 31.0607 32.5607C31.342 32.2794 31.5 31.8978 31.5 31.5V16.5C31.5 16.1022 31.342 15.7206 31.0607 15.4393C30.7794 15.158 30.3978 15 30 15Z" fill="#30B0C7"/>
</svg>
