<svg width="56" height="48" viewBox="0 0 56 48" fill="none" xmlns="http://www.w3.org/2000/svg">
<rect width="56" height="48" rx="24" fill="#F2F2F2"/>
<path d="M34.0003 19.91C33.9703 19.91 33.9503 19.91 33.9203 19.91H33.8703C31.9803 19.85 30.5703 18.39 30.5703 16.59C30.5703 14.75 32.0703 13.26 33.9003 13.26C35.7303 13.26 37.2303 14.76 37.2303 16.59C37.2203 18.4 35.8103 19.86 34.0103 19.92C34.0103 19.91 34.0103 19.91 34.0003 19.91ZM33.9003 14.75C32.8903 14.75 32.0703 15.57 32.0703 16.58C32.0703 17.57 32.8403 18.37 33.8303 18.41C33.8403 18.4 33.9203 18.4 34.0103 18.41C34.9803 18.36 35.7303 17.56 35.7403 16.58C35.7403 15.57 34.9203 14.75 33.9003 14.75Z" fill="#292D32"/>
<path d="M34.0105 27.2801C33.6205 27.2801 33.2305 27.2501 32.8405 27.1801C32.4305 27.1101 32.1605 26.7201 32.2305 26.3101C32.3005 25.9001 32.6905 25.6301 33.1005 25.7001C34.3305 25.9101 35.6305 25.6802 36.5005 25.1002C36.9705 24.7902 37.2205 24.4001 37.2205 24.0101C37.2205 23.6201 36.9605 23.2401 36.5005 22.9301C35.6305 22.3501 34.3105 22.1201 33.0705 22.3401C32.6605 22.4201 32.2705 22.1401 32.2005 21.7301C32.1305 21.3201 32.4005 20.9302 32.8105 20.8602C34.4405 20.5702 36.1305 20.8801 37.3305 21.6801C38.2105 22.2701 38.7205 23.1101 38.7205 24.0101C38.7205 24.9001 38.2205 25.7502 37.3305 26.3502C36.4205 26.9502 35.2405 27.2801 34.0105 27.2801Z" fill="#292D32"/>
<path d="M21.9705 19.91C21.9605 19.91 21.9505 19.91 21.9505 19.91C20.1505 19.85 18.7405 18.39 18.7305 16.59C18.7305 14.75 20.2305 13.25 22.0605 13.25C23.8905 13.25 25.3905 14.75 25.3905 16.58C25.3905 18.39 23.9805 19.85 22.1805 19.91L21.9705 19.16L22.0405 19.91C22.0205 19.91 21.9905 19.91 21.9705 19.91ZM22.0705 18.41C22.1305 18.41 22.1805 18.41 22.2405 18.42C23.1305 18.38 23.9105 17.58 23.9105 16.59C23.9105 15.58 23.0905 14.76 22.0805 14.76C21.0705 14.76 20.2505 15.58 20.2505 16.59C20.2505 17.57 21.0105 18.36 21.9805 18.42C21.9905 18.41 22.0305 18.41 22.0705 18.41Z" fill="#292D32"/>
<path d="M21.96 27.2801C20.73 27.2801 19.55 26.9502 18.64 26.3502C17.76 25.7602 17.25 24.9101 17.25 24.0101C17.25 23.1201 17.76 22.2701 18.64 21.6801C19.84 20.8801 21.53 20.5702 23.16 20.8602C23.57 20.9302 23.84 21.3201 23.77 21.7301C23.7 22.1401 23.31 22.4201 22.9 22.3401C21.66 22.1201 20.35 22.3501 19.47 22.9301C19 23.2401 18.75 23.6201 18.75 24.0101C18.75 24.4001 19.01 24.7902 19.47 25.1002C20.34 25.6802 21.64 25.9101 22.87 25.7001C23.28 25.6301 23.67 25.9101 23.74 26.3101C23.81 26.7201 23.54 27.1101 23.13 27.1801C22.74 27.2501 22.35 27.2801 21.96 27.2801Z" fill="#292D32"/>
<path d="M28.0003 27.38C27.9703 27.38 27.9503 27.38 27.9203 27.38H27.8703C25.9803 27.32 24.5703 25.86 24.5703 24.06C24.5703 22.22 26.0703 20.73 27.9003 20.73C29.7303 20.73 31.2303 22.23 31.2303 24.06C31.2203 25.87 29.8103 27.33 28.0103 27.39C28.0103 27.38 28.0103 27.38 28.0003 27.38ZM27.9003 22.22C26.8903 22.22 26.0703 23.04 26.0703 24.05C26.0703 25.04 26.8403 25.84 27.8303 25.88C27.8403 25.87 27.9203 25.87 28.0103 25.88C28.9803 25.83 29.7303 25.03 29.7403 24.05C29.7403 23.05 28.9203 22.22 27.9003 22.22Z" fill="#292D32"/>
<path d="M27.9993 34.76C26.7993 34.76 25.5993 34.45 24.6693 33.82C23.7893 33.23 23.2793 32.39 23.2793 31.49C23.2793 30.6 23.7793 29.74 24.6693 29.15C26.5393 27.91 29.4693 27.91 31.3293 29.15C32.2093 29.74 32.7193 30.58 32.7193 31.48C32.7193 32.37 32.2193 33.23 31.3293 33.82C30.3993 34.44 29.1993 34.76 27.9993 34.76ZM25.4993 30.41C25.0293 30.72 24.7793 31.11 24.7793 31.5C24.7793 31.89 25.0393 32.27 25.4993 32.58C26.8493 33.49 29.1393 33.49 30.4893 32.58C30.9593 32.27 31.2093 31.88 31.2093 31.49C31.2093 31.1 30.9493 30.72 30.4893 30.41C29.1493 29.5 26.8593 29.51 25.4993 30.41Z" fill="#292D32"/>
</svg>
