<svg width="107" height="48" viewBox="0 0 107 48" fill="none" xmlns="http://www.w3.org/2000/svg">
<rect width="107" height="48" rx="24" fill="url(#paint0_linear_1494_19290)"/>
<path d="M34.0001 19.16C33.9401 19.15 33.8701 19.15 33.8101 19.16C32.4301 19.11 31.3301 17.98 31.3301 16.58C31.3301 15.15 32.4801 14 33.9101 14C35.3401 14 36.4901 15.16 36.4901 16.58C36.4801 17.98 35.3801 19.11 34.0001 19.16Z" stroke="white" stroke-width="1.5" stroke-linecap="round" stroke-linejoin="round"/>
<path d="M32.9695 26.4402C34.3395 26.6702 35.8495 26.4302 36.9095 25.7202C38.3195 24.7802 38.3195 23.2402 36.9095 22.3002C35.8395 21.5902 34.3095 21.3502 32.9395 21.5902" stroke="white" stroke-width="1.5" stroke-linecap="round" stroke-linejoin="round"/>
<path d="M21.9685 19.16C22.0285 19.15 22.0985 19.15 22.1585 19.16C23.5385 19.11 24.6385 17.98 24.6385 16.58C24.6385 15.15 23.4885 14 22.0585 14C20.6285 14 19.4785 15.16 19.4785 16.58C19.4885 17.98 20.5885 19.11 21.9685 19.16Z" stroke="white" stroke-width="1.5" stroke-linecap="round" stroke-linejoin="round"/>
<path d="M22.9995 26.4402C21.6295 26.6702 20.1195 26.4302 19.0595 25.7202C17.6495 24.7802 17.6495 23.2402 19.0595 22.3002C20.1295 21.5902 21.6595 21.3502 23.0295 21.5902" stroke="white" stroke-width="1.5" stroke-linecap="round" stroke-linejoin="round"/>
<path d="M28.0001 26.6302C27.9401 26.6202 27.8701 26.6202 27.8101 26.6302C26.4301 26.5802 25.3301 25.4502 25.3301 24.0502C25.3301 22.6202 26.4801 21.4702 27.9101 21.4702C29.3401 21.4702 30.4901 22.6302 30.4901 24.0502C30.4801 25.4502 29.3801 26.5902 28.0001 26.6302Z" stroke="white" stroke-width="1.5" stroke-linecap="round" stroke-linejoin="round"/>
<path d="M25.0907 29.7804C23.6807 30.7204 23.6807 32.2603 25.0907 33.2003C26.6907 34.2703 29.3107 34.2703 30.9107 33.2003C32.3207 32.2603 32.3207 30.7204 30.9107 29.7804C29.3207 28.7204 26.6907 28.7204 25.0907 29.7804Z" stroke="white" stroke-width="1.5" stroke-linecap="round" stroke-linejoin="round"/>
<path d="M53.708 29.1094C53.0062 29.1094 52.3431 28.9818 51.7188 28.7266C51.099 28.4714 50.5498 28.1113 50.0713 27.6465C49.5973 27.1816 49.2236 26.6348 48.9502 26.0059C48.6813 25.377 48.5469 24.6934 48.5469 23.9551C48.5469 23.2031 48.6836 22.515 48.957 21.8906C49.235 21.2617 49.6133 20.7171 50.0918 20.2568C50.5703 19.7965 51.1195 19.4411 51.7393 19.1904C52.3636 18.9398 53.0221 18.8145 53.7148 18.8145C54.2754 18.8145 54.8245 18.8942 55.3623 19.0537C55.9001 19.2132 56.374 19.4411 56.7842 19.7373L56.2441 21.0293C55.957 20.7467 55.5879 20.528 55.1367 20.373C54.6855 20.2181 54.2207 20.1406 53.7422 20.1406C53.2637 20.1406 52.8011 20.2318 52.3545 20.4141C51.9079 20.5964 51.5068 20.8561 51.1514 21.1934C50.7959 21.526 50.5156 21.9248 50.3105 22.3896C50.1055 22.8499 50.0029 23.3626 50.0029 23.9277C50.0029 24.4746 50.0986 24.9827 50.29 25.4521C50.486 25.9215 50.7572 26.3317 51.1035 26.6826C51.4544 27.029 51.8555 27.3001 52.3066 27.4961C52.7578 27.6875 53.2409 27.7832 53.7559 27.7832C54.0749 27.7832 54.3916 27.7467 54.7061 27.6738C55.0251 27.5964 55.319 27.487 55.5879 27.3457C55.8613 27.2044 56.0892 27.0358 56.2715 26.8398L56.8115 28.1182C56.4014 28.4281 55.9206 28.6719 55.3691 28.8496C54.8223 29.0228 54.2686 29.1094 53.708 29.1094ZM59.751 29.1094C59.391 29.1094 59.0947 29.0342 58.8623 28.8838C58.6299 28.7288 58.4567 28.5101 58.3428 28.2275C58.2288 27.9404 58.1719 27.6032 58.1719 27.2158V18.4727H59.5664V27.168C59.5664 27.2637 59.5755 27.3662 59.5938 27.4756C59.612 27.5804 59.6576 27.6715 59.7305 27.749C59.8034 27.8219 59.9219 27.8584 60.0859 27.8584C60.1452 27.8584 60.1999 27.8538 60.25 27.8447C60.3047 27.8311 60.3571 27.8174 60.4072 27.8037V29.0068C60.3252 29.0387 60.2249 29.0638 60.1064 29.082C59.9925 29.1003 59.874 29.1094 59.751 29.1094ZM61.7881 29V21.7334H63.1826V29H61.7881ZM62.4854 20.6396C62.2074 20.6396 61.9727 20.5439 61.7812 20.3525C61.5944 20.1611 61.501 19.9287 61.501 19.6553C61.501 19.3818 61.5944 19.1494 61.7812 18.958C61.9727 18.7666 62.2074 18.6709 62.4854 18.6709C62.7588 18.6709 62.9912 18.7666 63.1826 18.958C63.374 19.1494 63.4697 19.3818 63.4697 19.6553C63.4697 19.9287 63.374 20.1611 63.1826 20.3525C62.9912 20.5439 62.7588 20.6396 62.4854 20.6396ZM68.2002 29.1094C67.4938 29.1094 66.8695 28.9544 66.3271 28.6445C65.7894 28.3301 65.3678 27.8926 65.0625 27.332C64.7572 26.7669 64.6045 26.1084 64.6045 25.3564C64.6045 24.5954 64.7549 23.9368 65.0557 23.3809C65.3564 22.8249 65.7643 22.3942 66.2793 22.0889C66.7943 21.779 67.3685 21.624 68.002 21.624C68.6217 21.624 69.1732 21.7653 69.6562 22.0479C70.1439 22.3304 70.529 22.7246 70.8115 23.2305C71.0941 23.7318 71.2354 24.3128 71.2354 24.9736C71.2354 25.1559 71.224 25.3245 71.2012 25.4795C71.1829 25.6299 71.1624 25.762 71.1396 25.876H65.6572V24.8232H69.9023C69.9023 24.4587 69.8249 24.1283 69.6699 23.832C69.515 23.5312 69.2939 23.2943 69.0068 23.1211C68.7243 22.9434 68.3893 22.8545 68.002 22.8545C67.5872 22.8545 67.2227 22.9593 66.9082 23.1689C66.5938 23.374 66.3477 23.6634 66.1699 24.0371C65.9967 24.4108 65.9102 24.846 65.9102 25.3428C65.9102 25.8486 66.0036 26.293 66.1904 26.6758C66.3773 27.054 66.6439 27.3503 66.9902 27.5645C67.3366 27.7741 67.7467 27.8789 68.2207 27.8789C68.4941 27.8789 68.7493 27.8447 68.9863 27.7764C69.2233 27.708 69.4352 27.6214 69.6221 27.5166C69.8089 27.4072 69.9684 27.2979 70.1006 27.1885L70.6064 28.3848C70.3239 28.5853 69.973 28.7562 69.5537 28.8975C69.139 29.0387 68.6878 29.1094 68.2002 29.1094ZM72.6777 29V21.7266H74.0586V22.6357H74.3389L73.8125 23.1963C73.9264 22.8545 74.1042 22.5674 74.3457 22.335C74.5918 22.098 74.8812 21.9202 75.2139 21.8018C75.5511 21.6787 75.9111 21.6172 76.2939 21.6172C76.8818 21.6172 77.3604 21.7471 77.7295 22.0068C78.1032 22.2666 78.3766 22.6016 78.5498 23.0117C78.7275 23.4219 78.8164 23.8548 78.8164 24.3105V29H77.4219V24.6113C77.4219 24.0326 77.2783 23.5973 76.9912 23.3057C76.7087 23.014 76.3213 22.8682 75.8291 22.8682C75.501 22.8682 75.2025 22.9365 74.9336 23.0732C74.6693 23.2054 74.4596 23.4014 74.3047 23.6611C74.1497 23.9209 74.0723 24.2376 74.0723 24.6113V29H72.6777ZM83.2871 29.1094C82.5579 29.1094 82.0088 28.902 81.6396 28.4873C81.2705 28.068 81.0859 27.5326 81.0859 26.8809V19.4434H82.4805V26.7646C82.4805 27.1247 82.5625 27.3958 82.7266 27.5781C82.8952 27.7559 83.1094 27.8447 83.3691 27.8447C83.4831 27.8447 83.5879 27.8288 83.6836 27.7969C83.7793 27.765 83.8682 27.7285 83.9502 27.6875L84.4492 28.8633C84.2943 28.9316 84.1211 28.9886 83.9297 29.0342C83.7428 29.0843 83.5286 29.1094 83.2871 29.1094ZM79.8828 22.9365V21.7266H84.251V22.9365H79.8828ZM87.751 29.1094C87.3135 29.1094 86.9147 29.0296 86.5547 28.8701C86.1947 28.7061 85.887 28.4941 85.6318 28.2344C85.3812 27.9701 85.2035 27.6898 85.0986 27.3936L86.3154 26.8809C86.4157 27.1452 86.5957 27.3799 86.8555 27.585C87.1198 27.7855 87.4183 27.8857 87.751 27.8857C87.9561 27.8857 88.1475 27.847 88.3252 27.7695C88.5075 27.6875 88.6533 27.5781 88.7627 27.4414C88.8766 27.3001 88.9336 27.1361 88.9336 26.9492C88.9336 26.7624 88.8766 26.6029 88.7627 26.4707C88.6488 26.334 88.5029 26.2201 88.3252 26.1289C88.1475 26.0332 87.9629 25.9535 87.7715 25.8896C87.5801 25.8258 87.4092 25.7689 87.2588 25.7188C86.9671 25.623 86.6709 25.4954 86.3701 25.3359C86.0693 25.1764 85.8141 24.9622 85.6045 24.6934C85.3994 24.4199 85.2969 24.0713 85.2969 23.6475C85.2969 23.2236 85.404 22.8613 85.6182 22.5605C85.8369 22.2552 86.124 22.0228 86.4795 21.8633C86.8395 21.6992 87.2269 21.6172 87.6416 21.6172C88.2386 21.6172 88.7445 21.7676 89.1592 22.0684C89.5785 22.3646 89.8747 22.7064 90.0479 23.0938L88.8447 23.5996C88.7445 23.4082 88.6009 23.2305 88.4141 23.0664C88.2272 22.8978 87.9766 22.8135 87.6621 22.8135C87.3887 22.8135 87.1471 22.8864 86.9375 23.0322C86.7324 23.1781 86.6299 23.3854 86.6299 23.6543C86.6299 23.8822 86.7028 24.0667 86.8486 24.208C86.999 24.3447 87.1859 24.4587 87.4092 24.5498C87.6325 24.6364 87.8604 24.7161 88.0928 24.7891C88.2842 24.8483 88.5007 24.9281 88.7422 25.0283C88.9883 25.1286 89.2253 25.2585 89.4531 25.418C89.6855 25.5775 89.877 25.778 90.0273 26.0195C90.1823 26.2611 90.2598 26.5573 90.2598 26.9082C90.2598 27.3366 90.1436 27.7171 89.9111 28.0498C89.6787 28.3825 89.3711 28.6423 88.9883 28.8291C88.61 29.016 88.1976 29.1094 87.751 29.1094Z" fill="white"/>
<defs>
<linearGradient id="paint0_linear_1494_19290" x1="-3.98606e-07" y1="24" x2="107" y2="24" gradientUnits="userSpaceOnUse">
<stop stop-color="#8E2D8E"/>
<stop offset="1" stop-color="#A654CD"/>
</linearGradient>
</defs>
</svg>
