<svg width="48" height="48" viewBox="0 0 48 48" fill="none" xmlns="http://www.w3.org/2000/svg">
<rect width="48" height="48" rx="24" fill="#FF3B30" fill-opacity="0.1"/>
<path d="M31.5 18.9833C28.725 18.7083 25.9333 18.5667 23.15 18.5667C21.5 18.5667 19.85 18.65 18.2 18.8167L16.5 18.9833" stroke="#FF3B30" stroke-width="1.5" stroke-linecap="round" stroke-linejoin="round"/>
<path d="M21.084 18.1417L21.2673 17.0501C21.4007 16.2584 21.5007 15.6667 22.909 15.6667H25.0923C26.5007 15.6667 26.609 16.2917 26.734 17.0584L26.9173 18.1417" stroke="#FF3B30" stroke-width="1.5" stroke-linecap="round" stroke-linejoin="round"/>
<path d="M29.7077 21.6167L29.166 30.0084C29.0743 31.3167 28.9993 32.3334 26.6743 32.3334H21.3243C18.9993 32.3334 18.9243 31.3167 18.8327 30.0084L18.291 21.6167" stroke="#FF3B30" stroke-width="1.5" stroke-linecap="round" stroke-linejoin="round"/>
<path d="M22.6074 27.75H25.3824" stroke="#FF3B30" stroke-width="1.5" stroke-linecap="round" stroke-linejoin="round"/>
<path d="M21.916 24.4167H26.0827" stroke="#FF3B30" stroke-width="1.5" stroke-linecap="round" stroke-linejoin="round"/>
</svg>
