<svg width="48" height="48" viewBox="0 0 48 48" fill="none" xmlns="http://www.w3.org/2000/svg">
<rect width="48" height="48" rx="24" fill="#F5F5F5"/>
<path d="M23.166 15.6667H21.4993C17.3327 15.6667 15.666 17.3334 15.666 21.5001V26.5001C15.666 30.6667 17.3327 32.3334 21.4993 32.3334H26.4993C30.666 32.3334 32.3327 30.6667 32.3327 26.5001V24.8334" stroke="#8E2D8E" stroke-width="1.5" stroke-linecap="round" stroke-linejoin="round"/>
<path d="M27.3675 16.5166L20.8009 23.0833C20.5509 23.3333 20.3009 23.825 20.2509 24.1833L19.8925 26.6916C19.7592 27.6 20.4009 28.2333 21.3092 28.1083L23.8175 27.75C24.1675 27.7 24.6592 27.45 24.9175 27.2L31.4842 20.6333C32.6175 19.5 33.1509 18.1833 31.4842 16.5166C29.8175 14.85 28.5009 15.3833 27.3675 16.5166Z" stroke="#8E2D8E" stroke-width="1.5" stroke-miterlimit="10" stroke-linecap="round" stroke-linejoin="round"/>
<path d="M26.4258 17.4583C26.9841 19.4499 28.5424 21.0083 30.5424 21.5749" stroke="#292D32" stroke-width="1.5" stroke-miterlimit="10" stroke-linecap="round" stroke-linejoin="round"/>
</svg>
