<svg width="44" height="44" viewBox="0 0 44 44" fill="none" xmlns="http://www.w3.org/2000/svg">
<rect width="44" height="44" rx="22" fill="#F4EAF4"/>
<path opacity="0.2" d="M28.1875 18.5625L22 24.75H19.25V22L25.4375 15.8125L28.1875 18.5625Z" fill="#8E2D8E"/>
<path d="M30.7364 16.0136L27.9864 13.2636C27.9226 13.1997 27.8467 13.149 27.7633 13.1144C27.6798 13.0798 27.5903 13.062 27.5 13.062C27.4097 13.062 27.3202 13.0798 27.2367 13.1144C27.1533 13.149 27.0774 13.1997 27.0136 13.2636L18.7636 21.5136C18.6998 21.5775 18.6492 21.6534 18.6147 21.7368C18.5802 21.8203 18.5624 21.9097 18.5625 22.0001V24.7501C18.5625 24.9324 18.6349 25.1073 18.7639 25.2362C18.8928 25.3651 19.0677 25.4376 19.25 25.4376H22C22.0903 25.4376 22.1798 25.4199 22.2632 25.3854C22.3467 25.3509 22.4225 25.3003 22.4864 25.2365L30.7364 16.9865C30.8003 16.9226 30.851 16.8468 30.8856 16.7633C30.9202 16.6799 30.938 16.5904 30.938 16.5001C30.938 16.4097 30.9202 16.3202 30.8856 16.2368C30.851 16.1533 30.8003 16.0775 30.7364 16.0136ZM21.7155 24.0626H19.9375V22.2845L25.4375 16.7845L27.2155 18.5626L21.7155 24.0626ZM28.1875 17.5906L26.4095 15.8126L27.5 14.722L29.278 16.5001L28.1875 17.5906ZM30.25 21.3126V28.8751C30.25 29.2397 30.1051 29.5895 29.8473 29.8473C29.5894 30.1052 29.2397 30.2501 28.875 30.2501H15.125C14.7603 30.2501 14.4106 30.1052 14.1527 29.8473C13.8949 29.5895 13.75 29.2397 13.75 28.8751V15.1251C13.75 14.7604 13.8949 14.4106 14.1527 14.1528C14.4106 13.8949 14.7603 13.7501 15.125 13.7501H22.6875C22.8698 13.7501 23.0447 13.8225 23.1736 13.9514C23.3026 14.0803 23.375 14.2552 23.375 14.4376C23.375 14.6199 23.3026 14.7948 23.1736 14.9237C23.0447 15.0526 22.8698 15.1251 22.6875 15.1251H15.125V28.8751H28.875V21.3126C28.875 21.1302 28.9474 20.9553 29.0764 20.8264C29.2053 20.6975 29.3802 20.6251 29.5625 20.6251C29.7448 20.6251 29.9197 20.6975 30.0486 20.8264C30.1776 20.9553 30.25 21.1302 30.25 21.3126Z" fill="#8E2D8E"/>
</svg>
