<svg width="48" height="48" viewBox="0 0 48 48" fill="none" xmlns="http://www.w3.org/2000/svg">
<rect width="48" height="48" rx="24" fill="#FF9500" fill-opacity="0.25"/>
<path d="M13.5 23.2508C13.5012 22.0577 13.9757 20.9138 14.8194 20.0702C15.663 19.2266 16.8069 18.7521 18 18.7508H21.7313C22.0041 18.7349 26.7581 18.4002 31.2853 14.6033C31.5039 14.4197 31.7704 14.3023 32.0534 14.2649C32.3365 14.2275 32.6243 14.2716 32.8831 14.3921C33.1419 14.5126 33.361 14.7045 33.5145 14.9451C33.6681 15.1858 33.7498 15.4653 33.75 15.7508V30.7508C33.75 31.0364 33.6684 31.316 33.5149 31.5568C33.3614 31.7976 33.1424 31.9896 32.8835 32.1103C32.6247 32.2309 32.3368 32.2751 32.0537 32.2377C31.7706 32.2003 31.504 32.0829 31.2853 31.8993C27.7444 28.9293 24.0666 28.078 22.5 27.8399V30.8136C22.5003 31.0608 22.4395 31.3042 22.3231 31.5222C22.2066 31.7403 22.0381 31.9261 21.8325 32.0633L20.8013 32.7505C20.6019 32.8835 20.3736 32.9669 20.1355 32.9936C19.8973 33.0202 19.6562 32.9894 19.4324 32.9038C19.2086 32.8181 19.0086 32.6801 18.849 32.5013C18.6895 32.3224 18.5752 32.1079 18.5156 31.8758L17.4122 27.7171C16.3296 27.573 15.3362 27.0408 14.6166 26.2193C13.897 25.3978 13.5002 24.3429 13.5 23.2508ZM32.25 30.7442V15.7508C28.2366 19.1174 24.1284 19.9696 22.5 20.1796V26.3183C24.1266 26.5321 28.2337 27.3824 32.25 30.7442ZM19.9688 31.4942V31.5046L21 30.8174V27.7508H18.975L19.9688 31.4942ZM18 26.2508H21V20.2508H18C17.2044 20.2508 16.4413 20.5669 15.8787 21.1295C15.3161 21.6921 15 22.4552 15 23.2508C15 24.0465 15.3161 24.8095 15.8787 25.3721C16.4413 25.9347 17.2044 26.2508 18 26.2508Z" fill="#FF9500"/>
</svg>
