<svg width="102" height="48" viewBox="0 0 102 48" fill="none" xmlns="http://www.w3.org/2000/svg">
<rect width="102" height="48" rx="24" fill="url(#paint0_linear_1494_11590)"/>
<path d="M24 14V17" stroke="white" stroke-width="1.5" stroke-miterlimit="10" stroke-linecap="round" stroke-linejoin="round"/>
<path d="M32 14V17" stroke="white" stroke-width="1.5" stroke-miterlimit="10" stroke-linecap="round" stroke-linejoin="round"/>
<path d="M37 20.5V29C37 32 35.5 34 32 34H24C20.5 34 19 32 19 29V20.5C19 17.5 20.5 15.5 24 15.5H32C35.5 15.5 37 17.5 37 20.5Z" stroke="white" stroke-width="1.5" stroke-miterlimit="10" stroke-linecap="round" stroke-linejoin="round"/>
<path d="M24 23H32" stroke="white" stroke-width="1.5" stroke-miterlimit="10" stroke-linecap="round" stroke-linejoin="round"/>
<path d="M24 28H28" stroke="white" stroke-width="1.5" stroke-miterlimit="10" stroke-linecap="round" stroke-linejoin="round"/>
<path d="M49.1211 29V18.9238H54.624V20.2432H50.5703V23.415H54.0293V24.7275H50.5703V29H49.1211ZM58.6436 29.1094C57.96 29.1094 57.347 28.9499 56.8047 28.6309C56.2624 28.3118 55.834 27.8675 55.5195 27.2979C55.2051 26.7282 55.0479 26.0719 55.0479 25.3291C55.0479 24.5999 55.2051 23.9574 55.5195 23.4014C55.834 22.8408 56.2624 22.4056 56.8047 22.0957C57.347 21.7812 57.96 21.624 58.6436 21.624C59.3363 21.624 59.9538 21.7812 60.4961 22.0957C61.0384 22.4056 61.4645 22.8408 61.7744 23.4014C62.0843 23.9574 62.2393 24.5999 62.2393 25.3291C62.2393 26.0719 62.082 26.7282 61.7676 27.2979C61.4531 27.8675 61.0247 28.3118 60.4824 28.6309C59.9401 28.9499 59.3271 29.1094 58.6436 29.1094ZM58.6436 27.8516C59.0719 27.8516 59.4525 27.7467 59.7852 27.5371C60.1178 27.3229 60.3776 27.029 60.5645 26.6553C60.7513 26.277 60.8447 25.835 60.8447 25.3291C60.8447 24.8415 60.7513 24.4131 60.5645 24.0439C60.3776 23.6748 60.1178 23.39 59.7852 23.1895C59.4525 22.9844 59.0719 22.8818 58.6436 22.8818C58.2243 22.8818 57.8483 22.9844 57.5156 23.1895C57.1829 23.39 56.9209 23.6748 56.7295 24.0439C56.5381 24.4085 56.4424 24.8369 56.4424 25.3291C56.4424 25.835 56.5358 26.277 56.7227 26.6553C56.9141 27.029 57.1738 27.3229 57.502 27.5371C57.8346 27.7467 58.2152 27.8516 58.6436 27.8516ZM63.627 29V21.7334H65.0078V22.8203H65.1992L64.7822 23.2852C64.9098 23.0026 65.0853 22.7337 65.3086 22.4785C65.5365 22.2233 65.8099 22.0182 66.1289 21.8633C66.4525 21.7038 66.8239 21.624 67.2432 21.624C67.4072 21.624 67.5599 21.6354 67.7012 21.6582C67.8424 21.681 67.9427 21.7038 68.002 21.7266L67.4346 23.0732C67.4027 23.055 67.3366 23.0391 67.2363 23.0254C67.1361 23.0072 67.0244 22.998 66.9014 22.998C66.7008 22.998 66.4912 23.0413 66.2725 23.1279C66.0537 23.2145 65.8486 23.3398 65.6572 23.5039C65.4704 23.6634 65.3177 23.8639 65.1992 24.1055C65.0807 24.347 65.0215 24.625 65.0215 24.9395V29H63.627ZM68.9043 29V21.7334H70.2715V22.6084H70.5107L69.9639 23.2852C70.1507 22.7565 70.4469 22.3486 70.8525 22.0615C71.2581 21.7699 71.7298 21.624 72.2676 21.624C72.7962 21.624 73.2428 21.7585 73.6074 22.0273C73.972 22.2962 74.2204 22.6471 74.3525 23.0801L73.874 22.6494H74.5439L73.9561 23.0801C74.1748 22.5924 74.5052 22.2279 74.9473 21.9863C75.3939 21.7448 75.8792 21.624 76.4033 21.624C76.8226 21.624 77.1872 21.6947 77.4971 21.8359C77.8115 21.9772 78.069 22.1732 78.2695 22.4238C78.4746 22.6699 78.625 22.9525 78.7207 23.2715C78.821 23.5905 78.8711 23.9255 78.8711 24.2764V29H77.4766V24.5293C77.4766 23.9824 77.3512 23.57 77.1006 23.292C76.8499 23.0094 76.5127 22.8682 76.0889 22.8682C75.82 22.8682 75.5716 22.9297 75.3438 23.0527C75.1159 23.1758 74.9313 23.3604 74.79 23.6064C74.6533 23.848 74.585 24.1556 74.585 24.5293V29H73.1904V24.5293C73.1904 23.9824 73.0628 23.57 72.8076 23.292C72.5524 23.0094 72.2129 22.8682 71.7891 22.8682C71.388 22.8682 71.0394 23.0094 70.7432 23.292C70.4469 23.5745 70.2988 24.0029 70.2988 24.5771V29H68.9043ZM82.8154 29.1094C82.3779 29.1094 81.9792 29.0296 81.6191 28.8701C81.2591 28.7061 80.9515 28.4941 80.6963 28.2344C80.4456 27.9701 80.2679 27.6898 80.1631 27.3936L81.3799 26.8809C81.4801 27.1452 81.6602 27.3799 81.9199 27.585C82.1842 27.7855 82.4827 27.8857 82.8154 27.8857C83.0205 27.8857 83.2119 27.847 83.3896 27.7695C83.5719 27.6875 83.7178 27.5781 83.8271 27.4414C83.9411 27.3001 83.998 27.1361 83.998 26.9492C83.998 26.7624 83.9411 26.6029 83.8271 26.4707C83.7132 26.334 83.5674 26.2201 83.3896 26.1289C83.2119 26.0332 83.0273 25.9535 82.8359 25.8896C82.6445 25.8258 82.4736 25.7689 82.3232 25.7188C82.0316 25.623 81.7354 25.4954 81.4346 25.3359C81.1338 25.1764 80.8786 24.9622 80.6689 24.6934C80.4639 24.4199 80.3613 24.0713 80.3613 23.6475C80.3613 23.2236 80.4684 22.8613 80.6826 22.5605C80.9014 22.2552 81.1885 22.0228 81.5439 21.8633C81.904 21.6992 82.2913 21.6172 82.7061 21.6172C83.3031 21.6172 83.8089 21.7676 84.2236 22.0684C84.6429 22.3646 84.9391 22.7064 85.1123 23.0938L83.9092 23.5996C83.8089 23.4082 83.6654 23.2305 83.4785 23.0664C83.2917 22.8978 83.041 22.8135 82.7266 22.8135C82.4531 22.8135 82.2116 22.8864 82.002 23.0322C81.7969 23.1781 81.6943 23.3854 81.6943 23.6543C81.6943 23.8822 81.7673 24.0667 81.9131 24.208C82.0635 24.3447 82.2503 24.4587 82.4736 24.5498C82.6969 24.6364 82.9248 24.7161 83.1572 24.7891C83.3486 24.8483 83.5651 24.9281 83.8066 25.0283C84.0527 25.1286 84.2897 25.2585 84.5176 25.418C84.75 25.5775 84.9414 25.778 85.0918 26.0195C85.2467 26.2611 85.3242 26.5573 85.3242 26.9082C85.3242 27.3366 85.208 27.7171 84.9756 28.0498C84.7432 28.3825 84.4355 28.6423 84.0527 28.8291C83.6745 29.016 83.262 29.1094 82.8154 29.1094Z" fill="white"/>
<defs>
<linearGradient id="paint0_linear_1494_11590" x1="-3.7998e-07" y1="24" x2="102" y2="24" gradientUnits="userSpaceOnUse">
<stop stop-color="#8E2D8E"/>
<stop offset="1" stop-color="#A654CD"/>
</linearGradient>
</defs>
</svg>
