<svg width="56" height="48" viewBox="0 0 56 48" fill="none" xmlns="http://www.w3.org/2000/svg">
<rect width="56" height="48" rx="24" fill="#F2F2F2"/>
<path d="M24 17.75C23.59 17.75 23.25 17.41 23.25 17V14C23.25 13.59 23.59 13.25 24 13.25C24.41 13.25 24.75 13.59 24.75 14V17C24.75 17.41 24.41 17.75 24 17.75Z" fill="#292D32"/>
<path d="M32 17.75C31.59 17.75 31.25 17.41 31.25 17V14C31.25 13.59 31.59 13.25 32 13.25C32.41 13.25 32.75 13.59 32.75 14V17C32.75 17.41 32.41 17.75 32 17.75Z" fill="#292D32"/>
<path d="M32 34.75H24C20.35 34.75 18.25 32.65 18.25 29V20.5C18.25 16.85 20.35 14.75 24 14.75H32C35.65 14.75 37.75 16.85 37.75 20.5V29C37.75 32.65 35.65 34.75 32 34.75ZM24 16.25C21.14 16.25 19.75 17.64 19.75 20.5V29C19.75 31.86 21.14 33.25 24 33.25H32C34.86 33.25 36.25 31.86 36.25 29V20.5C36.25 17.64 34.86 16.25 32 16.25H24Z" fill="#292D32"/>
<path d="M32 23.75H24C23.59 23.75 23.25 23.41 23.25 23C23.25 22.59 23.59 22.25 24 22.25H32C32.41 22.25 32.75 22.59 32.75 23C32.75 23.41 32.41 23.75 32 23.75Z" fill="#292D32"/>
<path d="M28 28.75H24C23.59 28.75 23.25 28.41 23.25 28C23.25 27.59 23.59 27.25 24 27.25H28C28.41 27.25 28.75 27.59 28.75 28C28.75 28.41 28.41 28.75 28 28.75Z" fill="#292D32"/>
</svg>
