<svg width="47" height="47" viewBox="0 0 47 47" fill="none" xmlns="http://www.w3.org/2000/svg">
<rect width="46.1746" height="46.1746" rx="23.0873" fill="#D764D7" fill-opacity="0.1"/>
<path opacity="0.4" d="M30.9415 21.415H28.2713C26.0816 21.415 24.2984 19.6318 24.2984 17.442V14.7718C24.2984 14.2637 23.8826 13.8479 23.3744 13.8479H19.4569C16.6112 13.8479 14.3105 15.6958 14.3105 18.9943V27.1804C14.3105 30.4789 16.6112 32.3267 19.4569 32.3267H26.7191C29.5648 32.3267 31.8654 30.4789 31.8654 27.1804V22.3389C31.8654 21.8308 31.4497 21.415 30.9415 21.415Z" fill="#D764D7"/>
<path d="M26.5973 14.0419C26.2185 13.663 25.5625 13.9217 25.5625 14.4484V17.6729C25.5625 19.0219 26.7082 20.1399 28.1033 20.1399C28.9811 20.1491 30.2007 20.1491 31.2447 20.1491C31.7714 20.1491 32.0486 19.5301 31.679 19.1605C30.3485 17.8208 27.9647 15.4093 26.5973 14.0419Z" fill="#D764D7"/>
<path d="M24.4729 24.704H18.9293C18.5505 24.704 18.2363 24.3899 18.2363 24.0111C18.2363 23.6323 18.5505 23.3181 18.9293 23.3181H24.4729C24.8518 23.3181 25.1659 23.6323 25.1659 24.0111C25.1659 24.3899 24.8518 24.704 24.4729 24.704Z" fill="#D764D7"/>
<path d="M22.6251 28.4001H18.9293C18.5505 28.4001 18.2363 28.0859 18.2363 27.7071C18.2363 27.3283 18.5505 27.0142 18.9293 27.0142H22.6251C23.0039 27.0142 23.318 27.3283 23.318 27.7071C23.318 28.0859 23.0039 28.4001 22.6251 28.4001Z" fill="#D764D7"/>
</svg>
