<svg width="99" height="99" viewBox="0 0 99 99" fill="none" xmlns="http://www.w3.org/2000/svg">
<path d="M49.0907 8.18164C26.5498 8.18164 8.18164 26.5498 8.18164 49.0907C8.18164 71.6316 26.5498 89.9998 49.0907 89.9998C71.6316 89.9998 89.9998 71.6316 89.9998 49.0907C89.9998 26.5498 71.6316 8.18164 49.0907 8.18164ZM68.6453 39.6816L45.4498 62.8771C44.8771 63.4498 44.0998 63.7771 43.2816 63.7771C42.4635 63.7771 41.6862 63.4498 41.1135 62.8771L29.5362 51.2998C28.3498 50.1135 28.3498 48.1498 29.5362 46.9635C30.7225 45.7771 32.6862 45.7771 33.8725 46.9635L43.2816 56.3725L64.3089 35.3453C65.4953 34.1589 67.4589 34.1589 68.6453 35.3453C69.8316 36.5316 69.8316 38.4544 68.6453 39.6816Z" fill="#62C554"/>
</svg>
