<svg width="32" height="32" viewBox="0 0 32 32" fill="none" xmlns="http://www.w3.org/2000/svg">
<g style="mix-blend-mode:multiply">
<rect width="32" height="32" rx="16" fill="#EDEDED"/>
<path d="M13.334 22.8802C13.1473 22.8802 12.954 22.8336 12.7806 22.7403C12.4006 22.5403 12.1673 22.1402 12.1673 21.7136V20.767C10.154 20.5603 8.83398 19.0802 8.83398 16.9602V12.9603C8.83398 10.667 10.374 9.12695 12.6673 9.12695H19.334C21.6273 9.12695 23.1673 10.667 23.1673 12.9603V16.9602C23.1673 19.2536 21.6273 20.7936 19.334 20.7936H16.8206L13.9806 22.687C13.7873 22.8136 13.5607 22.8802 13.334 22.8802ZM12.6673 10.1203C10.9473 10.1203 9.83398 11.2336 9.83398 12.9536V16.9537C9.83398 18.6737 10.9473 19.787 12.6673 19.787C12.9407 19.787 13.1673 20.0137 13.1673 20.287V21.707C13.1673 21.7937 13.2207 21.8336 13.254 21.8536C13.2873 21.8736 13.354 21.8936 13.4273 21.847L16.394 19.8737C16.474 19.8203 16.574 19.787 16.674 19.787H19.3407C21.0607 19.787 22.174 18.6737 22.174 16.9537V12.9536C22.174 11.2336 21.0607 10.1203 19.3407 10.1203H12.6673Z" fill="#350035"/>
<path d="M15.9992 16.0732C15.7259 16.0732 15.4992 15.8466 15.4992 15.5732V15.4333C15.4992 14.6599 16.0659 14.2799 16.2792 14.1333C16.5259 13.9666 16.6059 13.8533 16.6059 13.6799C16.6059 13.3466 16.3326 13.0732 15.9992 13.0732C15.6659 13.0732 15.3926 13.3466 15.3926 13.6799C15.3926 13.9533 15.1659 14.1799 14.8926 14.1799C14.6192 14.1799 14.3926 13.9533 14.3926 13.6799C14.3926 12.7933 15.1126 12.0732 15.9992 12.0732C16.8859 12.0732 17.6059 12.7933 17.6059 13.6799C17.6059 14.4399 17.0459 14.8199 16.8392 14.9599C16.5792 15.1333 16.4992 15.2466 16.4992 15.4333V15.5732C16.4992 15.8532 16.2726 16.0732 15.9992 16.0732Z" fill="#350035"/>
<path d="M16 17.7334C15.72 17.7334 15.5 17.5067 15.5 17.2334C15.5 16.9601 15.7267 16.7334 16 16.7334C16.2733 16.7334 16.5 16.9601 16.5 17.2334C16.5 17.5067 16.28 17.7334 16 17.7334Z" fill="#350035"/>
</g>
</svg>
