<svg width="102" height="48" viewBox="0 0 102 48" fill="none" xmlns="http://www.w3.org/2000/svg">
<rect width="102" height="48" rx="24" fill="url(#paint0_linear_1494_4916)"/>
<path d="M25.02 14.84L19.63 19.04C18.73 19.74 18 21.23 18 22.36V29.77C18 32.09 19.89 33.99 22.21 33.99H33.79C36.11 33.99 38 32.09 38 29.78V22.5C38 21.29 37.19 19.74 36.2 19.05L30.02 14.72C28.62 13.74 26.37 13.79 25.02 14.84Z" stroke="white" stroke-width="1.5" stroke-linecap="round" stroke-linejoin="round"/>
<path d="M28 29.99V26.99" stroke="white" stroke-width="1.5" stroke-linecap="round" stroke-linejoin="round"/>
<path d="M49.1211 29V18.9238H50.5703V23.2031H55.5195V18.9238H56.9756V29H55.5195V24.5156H50.5703V29H49.1211ZM62.0752 29.1094C61.3916 29.1094 60.7786 28.9499 60.2363 28.6309C59.694 28.3118 59.2656 27.8675 58.9512 27.2979C58.6367 26.7282 58.4795 26.0719 58.4795 25.3291C58.4795 24.5999 58.6367 23.9574 58.9512 23.4014C59.2656 22.8408 59.694 22.4056 60.2363 22.0957C60.7786 21.7812 61.3916 21.624 62.0752 21.624C62.7679 21.624 63.3854 21.7812 63.9277 22.0957C64.4701 22.4056 64.8962 22.8408 65.2061 23.4014C65.516 23.9574 65.6709 24.5999 65.6709 25.3291C65.6709 26.0719 65.5137 26.7282 65.1992 27.2979C64.8848 27.8675 64.4564 28.3118 63.9141 28.6309C63.3717 28.9499 62.7588 29.1094 62.0752 29.1094ZM62.0752 27.8516C62.5036 27.8516 62.8841 27.7467 63.2168 27.5371C63.5495 27.3229 63.8092 27.029 63.9961 26.6553C64.1829 26.277 64.2764 25.835 64.2764 25.3291C64.2764 24.8415 64.1829 24.4131 63.9961 24.0439C63.8092 23.6748 63.5495 23.39 63.2168 23.1895C62.8841 22.9844 62.5036 22.8818 62.0752 22.8818C61.6559 22.8818 61.2799 22.9844 60.9473 23.1895C60.6146 23.39 60.3525 23.6748 60.1611 24.0439C59.9697 24.4085 59.874 24.8369 59.874 25.3291C59.874 25.835 59.9674 26.277 60.1543 26.6553C60.3457 27.029 60.6055 27.3229 60.9336 27.5371C61.2663 27.7467 61.6468 27.8516 62.0752 27.8516ZM67.0586 29V21.7334H68.4258V22.6084H68.665L68.1182 23.2852C68.305 22.7565 68.6012 22.3486 69.0068 22.0615C69.4124 21.7699 69.8841 21.624 70.4219 21.624C70.9505 21.624 71.3971 21.7585 71.7617 22.0273C72.1263 22.2962 72.3747 22.6471 72.5068 23.0801L72.0283 22.6494H72.6982L72.1104 23.0801C72.3291 22.5924 72.6595 22.2279 73.1016 21.9863C73.5482 21.7448 74.0335 21.624 74.5576 21.624C74.9769 21.624 75.3415 21.6947 75.6514 21.8359C75.9658 21.9772 76.2233 22.1732 76.4238 22.4238C76.6289 22.6699 76.7793 22.9525 76.875 23.2715C76.9753 23.5905 77.0254 23.9255 77.0254 24.2764V29H75.6309V24.5293C75.6309 23.9824 75.5055 23.57 75.2549 23.292C75.0042 23.0094 74.667 22.8682 74.2432 22.8682C73.9743 22.8682 73.7259 22.9297 73.498 23.0527C73.2702 23.1758 73.0856 23.3604 72.9443 23.6064C72.8076 23.848 72.7393 24.1556 72.7393 24.5293V29H71.3447V24.5293C71.3447 23.9824 71.2171 23.57 70.9619 23.292C70.7067 23.0094 70.3672 22.8682 69.9434 22.8682C69.5423 22.8682 69.1937 23.0094 68.8975 23.292C68.6012 23.5745 68.4531 24.0029 68.4531 24.5771V29H67.0586ZM81.9131 29.1094C81.2067 29.1094 80.5824 28.9544 80.04 28.6445C79.5023 28.3301 79.0807 27.8926 78.7754 27.332C78.4701 26.7669 78.3174 26.1084 78.3174 25.3564C78.3174 24.5954 78.4678 23.9368 78.7686 23.3809C79.0693 22.8249 79.4772 22.3942 79.9922 22.0889C80.5072 21.779 81.0814 21.624 81.7148 21.624C82.3346 21.624 82.8861 21.7653 83.3691 22.0479C83.8568 22.3304 84.2419 22.7246 84.5244 23.2305C84.807 23.7318 84.9482 24.3128 84.9482 24.9736C84.9482 25.1559 84.9368 25.3245 84.9141 25.4795C84.8958 25.6299 84.8753 25.762 84.8525 25.876H79.3701V24.8232H83.6152C83.6152 24.4587 83.5378 24.1283 83.3828 23.832C83.2279 23.5312 83.0068 23.2943 82.7197 23.1211C82.4372 22.9434 82.1022 22.8545 81.7148 22.8545C81.3001 22.8545 80.9355 22.9593 80.6211 23.1689C80.3066 23.374 80.0605 23.6634 79.8828 24.0371C79.7096 24.4108 79.623 24.846 79.623 25.3428C79.623 25.8486 79.7165 26.293 79.9033 26.6758C80.0902 27.054 80.3568 27.3503 80.7031 27.5645C81.0495 27.7741 81.4596 27.8789 81.9336 27.8789C82.207 27.8789 82.4622 27.8447 82.6992 27.7764C82.9362 27.708 83.1481 27.6214 83.335 27.5166C83.5218 27.4072 83.6813 27.2979 83.8135 27.1885L84.3193 28.3848C84.0368 28.5853 83.6859 28.7562 83.2666 28.8975C82.8519 29.0387 82.4007 29.1094 81.9131 29.1094Z" fill="white"/>
<defs>
<linearGradient id="paint0_linear_1494_4916" x1="-3.7998e-07" y1="24" x2="102" y2="24" gradientUnits="userSpaceOnUse">
<stop stop-color="#8E2D8E"/>
<stop offset="1" stop-color="#A654CD"/>
</linearGradient>
</defs>
</svg>
