<svg width="56" height="48" viewBox="0 0 56 48" fill="none" xmlns="http://www.w3.org/2000/svg">
<rect width="56" height="48" rx="24" fill="#F2F2F2"/>
<path d="M33.79 34.75H22.21C19.47 34.75 17.25 32.52 17.25 29.78V22.37C17.25 21.01 18.09 19.3 19.17 18.46L24.56 14.26C26.18 13 28.77 12.94 30.45 14.12L36.63 18.45C37.82 19.28 38.75 21.06 38.75 22.51V29.79C38.75 32.52 36.53 34.75 33.79 34.75ZM25.48 15.44L20.09 19.64C19.38 20.2 18.75 21.47 18.75 22.37V29.78C18.75 31.69 20.3 33.25 22.21 33.25H33.79C35.7 33.25 37.25 31.7 37.25 29.79V22.51C37.25 21.55 36.56 20.22 35.77 19.68L29.59 15.35C28.45 14.55 26.57 14.59 25.48 15.44Z" fill="#292D32"/>
<path d="M28 30.75C27.59 30.75 27.25 30.41 27.25 30V27C27.25 26.59 27.59 26.25 28 26.25C28.41 26.25 28.75 26.59 28.75 27V30C28.75 30.41 28.41 30.75 28 30.75Z" fill="#292D32"/>
</svg>
