<svg width="48" height="48" viewBox="0 0 48 48" fill="none" xmlns="http://www.w3.org/2000/svg">
<rect width="48" height="48" rx="24" fill="white"/>
<path d="M28.166 29.3583H24.8327L21.1243 31.8249C20.5743 32.1916 19.8327 31.8 19.8327 31.1333V29.3583C17.3327 29.3583 15.666 27.6916 15.666 25.1916V20.1916C15.666 17.6916 17.3327 16.0249 19.8327 16.0249H28.166C30.666 16.0249 32.3327 17.6916 32.3327 20.1916V25.1916C32.3327 27.6916 30.666 29.3583 28.166 29.3583Z" stroke="#292D32" stroke-width="1.5" stroke-miterlimit="10" stroke-linecap="round" stroke-linejoin="round"/>
<path d="M24.0005 23.4668V23.2918C24.0005 22.7252 24.3505 22.4251 24.7005 22.1835C25.0422 21.9501 25.3838 21.6502 25.3838 21.1002C25.3838 20.3335 24.7672 19.7168 24.0005 19.7168C23.2338 19.7168 22.6172 20.3335 22.6172 21.1002" stroke="#292D32" stroke-width="1.5" stroke-linecap="round" stroke-linejoin="round"/>
<path d="M23.9969 25.4582H24.0044" stroke="#292D32" stroke-width="1.5" stroke-linecap="round" stroke-linejoin="round"/>
</svg>
