<svg width="32" height="32" viewBox="0 0 32 32" fill="none" xmlns="http://www.w3.org/2000/svg">
<g style="mix-blend-mode:multiply">
<rect width="32" height="32" rx="16" fill="#FF3B30" fill-opacity="0.1"/>
<path d="M19.6272 18.2466C19.5006 18.2466 19.3739 18.2 19.2739 18.1C19.0806 17.9066 19.0806 17.5866 19.2739 17.3933L20.6272 16.04L19.2739 14.6866C19.0806 14.4933 19.0806 14.1733 19.2739 13.98C19.4672 13.7866 19.7872 13.7866 19.9806 13.98L21.6872 15.6866C21.8806 15.88 21.8806 16.2 21.6872 16.3933L19.9806 18.1C19.8806 18.2 19.7539 18.2466 19.6272 18.2466Z" fill="#FF3B30"/>
<path d="M21.2859 16.54H14.5059C14.2325 16.54 14.0059 16.3134 14.0059 16.04C14.0059 15.7667 14.2325 15.54 14.5059 15.54H21.2859C21.5592 15.54 21.7859 15.7667 21.7859 16.04C21.7859 16.3134 21.5592 16.54 21.2859 16.54Z" fill="#FF3B30"/>
<path d="M15.8392 21.8337C12.4059 21.8337 10.0059 19.4337 10.0059 16.0003C10.0059 12.567 12.4059 10.167 15.8392 10.167C16.1125 10.167 16.3392 10.3937 16.3392 10.667C16.3392 10.9403 16.1125 11.167 15.8392 11.167C12.9925 11.167 11.0059 13.1537 11.0059 16.0003C11.0059 18.847 12.9925 20.8337 15.8392 20.8337C16.1125 20.8337 16.3392 21.0603 16.3392 21.3337C16.3392 21.607 16.1125 21.8337 15.8392 21.8337Z" fill="#FF3B30"/>
</g>
</svg>
