<svg width="32" height="32" viewBox="0 0 32 32" fill="none" xmlns="http://www.w3.org/2000/svg">
<g style="mix-blend-mode:multiply">
<rect width="32" height="32" rx="16" fill="#EDEDED"/>
<path d="M10.6194 19.0861C10.4928 19.0861 10.3661 19.0394 10.2661 18.9394C10.0728 18.7461 10.0728 18.4261 10.2661 18.2328L18.2328 10.2661C18.4261 10.0728 18.7461 10.0728 18.9394 10.2661C19.1328 10.4594 19.1328 10.7794 18.9394 10.9728L10.9728 18.9461C10.8794 19.0394 10.7461 19.0861 10.6194 19.0861Z" fill="#350035"/>
<path d="M15.4007 20.687C15.274 20.687 15.1473 20.6403 15.0473 20.5403C14.854 20.347 14.854 20.027 15.0473 19.8337L15.8473 19.0337C16.0407 18.8403 16.3607 18.8403 16.554 19.0337C16.7473 19.227 16.7473 19.547 16.554 19.7403L15.754 20.5403C15.6607 20.6337 15.534 20.687 15.4007 20.687Z" fill="#350035"/>
<path d="M17.1936 18.8934C17.067 18.8934 16.9403 18.8468 16.8403 18.7468C16.647 18.5534 16.647 18.2334 16.8403 18.0401L18.4336 16.4468C18.627 16.2534 18.947 16.2534 19.1403 16.4468C19.3336 16.6401 19.3336 16.9601 19.1403 17.1534L17.547 18.7468C17.4536 18.8401 17.3203 18.8934 17.1936 18.8934Z" fill="#292D32"/>
<path d="M15.3993 23.1669C14.746 23.1669 14.0926 22.7669 13.2993 21.9736L10.026 18.7003C8.43262 17.1069 8.43929 16.0803 10.046 14.4736L14.4726 10.0469C16.0793 8.44027 17.106 8.4336 18.6993 10.0269L21.9726 13.3003C23.566 14.8936 23.5593 15.9203 21.9526 17.5269L17.526 21.9536C16.7193 22.7603 16.0593 23.1669 15.3993 23.1669ZM16.5993 9.8336C16.2526 9.8336 15.8126 10.1203 15.1793 10.7536L10.7526 15.1803C10.1193 15.8136 9.83263 16.2536 9.83263 16.5936C9.83263 16.9403 10.0993 17.3603 10.7326 17.9936L14.006 21.2669C14.6393 21.9003 15.0526 22.1669 15.3993 22.1669C15.3993 22.1669 15.3993 22.1669 15.406 22.1669C15.7526 22.1669 16.186 21.8803 16.8193 21.2469L21.246 16.8203C21.8793 16.1869 22.166 15.7469 22.166 15.4069C22.166 15.0603 21.8993 14.6403 21.266 14.0069L17.9926 10.7336C17.366 10.1003 16.946 9.8336 16.5993 9.8336Z" fill="#292D32"/>
<path d="M22.6673 23.167H9.33398C9.06065 23.167 8.83398 22.9403 8.83398 22.667C8.83398 22.3937 9.06065 22.167 9.33398 22.167H22.6673C22.9406 22.167 23.1673 22.3937 23.1673 22.667C23.1673 22.9403 22.9406 23.167 22.6673 23.167Z" fill="#292D32"/>
</g>
</svg>
