<svg width="32" height="32" viewBox="0 0 32 32" fill="none" xmlns="http://www.w3.org/2000/svg">
<g style="mix-blend-mode:multiply">
<rect width="32" height="32" rx="16" fill="#EDEDED"/>
<path d="M18.0007 23.1663H14.0007C10.3807 23.1663 8.83398 21.6197 8.83398 17.9997V13.9997C8.83398 10.3797 10.3807 8.83301 14.0007 8.83301H17.334C17.6073 8.83301 17.834 9.05967 17.834 9.33301C17.834 9.60634 17.6073 9.83301 17.334 9.83301H14.0007C10.9273 9.83301 9.83398 10.9263 9.83398 13.9997V17.9997C9.83398 21.073 10.9273 22.1663 14.0007 22.1663H18.0007C21.074 22.1663 22.1673 21.073 22.1673 17.9997V14.6663C22.1673 14.393 22.394 14.1663 22.6673 14.1663C22.9406 14.1663 23.1673 14.393 23.1673 14.6663V17.9997C23.1673 21.6197 21.6207 23.1663 18.0007 23.1663Z" fill="#350035"/>
<path d="M22.6654 15.1673H19.9987C17.7187 15.1673 16.832 14.2806 16.832 12.0006V9.33398C16.832 9.13398 16.952 8.94731 17.1387 8.87398C17.3254 8.79398 17.5387 8.84064 17.6854 8.98064L23.0187 14.314C23.1587 14.454 23.2054 14.674 23.1254 14.8606C23.0454 15.0473 22.8654 15.1673 22.6654 15.1673ZM17.832 10.5406V12.0006C17.832 13.7206 18.2787 14.1673 19.9987 14.1673H21.4587L17.832 10.5406Z" fill="#350035"/>
<path d="M16.666 17.167H12.666C12.3927 17.167 12.166 16.9403 12.166 16.667C12.166 16.3937 12.3927 16.167 12.666 16.167H16.666C16.9393 16.167 17.166 16.3937 17.166 16.667C17.166 16.9403 16.9393 17.167 16.666 17.167Z" fill="#292D32"/>
<path d="M15.3327 19.834H12.666C12.3927 19.834 12.166 19.6073 12.166 19.334C12.166 19.0607 12.3927 18.834 12.666 18.834H15.3327C15.606 18.834 15.8327 19.0607 15.8327 19.334C15.8327 19.6073 15.606 19.834 15.3327 19.834Z" fill="#292D32"/>
</g>
</svg>
