<svg width="105" height="48" viewBox="0 0 105 48" fill="none" xmlns="http://www.w3.org/2000/svg">
<rect width="105" height="48" rx="24" fill="url(#paint0_linear_1494_19132)"/>
<path d="M28.1207 24.7805C28.0507 24.7705 27.9607 24.7705 27.8807 24.7805C26.1207 24.7205 24.7207 23.2805 24.7207 21.5105C24.7207 19.7005 26.1807 18.2305 28.0007 18.2305C29.8107 18.2305 31.2807 19.7005 31.2807 21.5105C31.2707 23.2805 29.8807 24.7205 28.1207 24.7805Z" stroke="white" stroke-width="1.5" stroke-linecap="round" stroke-linejoin="round"/>
<path d="M34.7398 31.3796C32.9598 33.0096 30.5998 33.9996 27.9998 33.9996C25.3998 33.9996 23.0398 33.0096 21.2598 31.3796C21.3598 30.4396 21.9598 29.5196 23.0298 28.7996C25.7698 26.9796 30.2498 26.9796 32.9698 28.7996C34.0398 29.5196 34.6398 30.4396 34.7398 31.3796Z" stroke="white" stroke-width="1.5" stroke-linecap="round" stroke-linejoin="round"/>
<path d="M28 34C33.5228 34 38 29.5228 38 24C38 18.4772 33.5228 14 28 14C22.4772 14 18 18.4772 18 24C18 29.5228 22.4772 34 28 34Z" stroke="white" stroke-width="1.5" stroke-linecap="round" stroke-linejoin="round"/>
<path d="M50.2217 25.1582V23.8457H52.1152C52.5026 23.8457 52.8398 23.7682 53.127 23.6133C53.4141 23.4583 53.6374 23.2441 53.7969 22.9707C53.9564 22.6927 54.0361 22.3714 54.0361 22.0068C54.0361 21.4554 53.8538 21.0247 53.4893 20.7148C53.1292 20.4004 52.6439 20.2432 52.0332 20.2432H50.2217V18.9238H52.1221C52.8057 18.9238 53.3981 19.0492 53.8994 19.2998C54.4007 19.5505 54.7881 19.9036 55.0615 20.3594C55.3395 20.8151 55.4785 21.3506 55.4785 21.9658C55.4785 22.5856 55.3441 23.1348 55.0752 23.6133C54.8063 24.0918 54.4258 24.4701 53.9336 24.748C53.446 25.0215 52.8695 25.1582 52.2041 25.1582H50.2217ZM49.1211 29V18.9238H50.5703V29H49.1211ZM56.9141 29V21.7334H58.2949V22.8203H58.4863L58.0693 23.2852C58.1969 23.0026 58.3724 22.7337 58.5957 22.4785C58.8236 22.2233 59.097 22.0182 59.416 21.8633C59.7396 21.7038 60.111 21.624 60.5303 21.624C60.6943 21.624 60.847 21.6354 60.9883 21.6582C61.1296 21.681 61.2298 21.7038 61.2891 21.7266L60.7217 23.0732C60.6898 23.055 60.6237 23.0391 60.5234 23.0254C60.4232 23.0072 60.3115 22.998 60.1885 22.998C59.988 22.998 59.7783 23.0413 59.5596 23.1279C59.3408 23.2145 59.1357 23.3398 58.9443 23.5039C58.7575 23.6634 58.6048 23.8639 58.4863 24.1055C58.3678 24.347 58.3086 24.625 58.3086 24.9395V29H56.9141ZM64.9463 29.1094C64.2627 29.1094 63.6497 28.9499 63.1074 28.6309C62.5651 28.3118 62.1367 27.8675 61.8223 27.2979C61.5078 26.7282 61.3506 26.0719 61.3506 25.3291C61.3506 24.5999 61.5078 23.9574 61.8223 23.4014C62.1367 22.8408 62.5651 22.4056 63.1074 22.0957C63.6497 21.7812 64.2627 21.624 64.9463 21.624C65.639 21.624 66.2565 21.7812 66.7988 22.0957C67.3411 22.4056 67.7673 22.8408 68.0771 23.4014C68.387 23.9574 68.542 24.5999 68.542 25.3291C68.542 26.0719 68.3848 26.7282 68.0703 27.2979C67.7559 27.8675 67.3275 28.3118 66.7852 28.6309C66.2428 28.9499 65.6299 29.1094 64.9463 29.1094ZM64.9463 27.8516C65.3747 27.8516 65.7552 27.7467 66.0879 27.5371C66.4206 27.3229 66.6803 27.029 66.8672 26.6553C67.054 26.277 67.1475 25.835 67.1475 25.3291C67.1475 24.8415 67.054 24.4131 66.8672 24.0439C66.6803 23.6748 66.4206 23.39 66.0879 23.1895C65.7552 22.9844 65.3747 22.8818 64.9463 22.8818C64.527 22.8818 64.151 22.9844 63.8184 23.1895C63.4857 23.39 63.2236 23.6748 63.0322 24.0439C62.8408 24.4085 62.7451 24.8369 62.7451 25.3291C62.7451 25.835 62.8385 26.277 63.0254 26.6553C63.2168 27.029 63.4766 27.3229 63.8047 27.5371C64.1374 27.7467 64.5179 27.8516 64.9463 27.8516ZM69.2051 22.9707V21.7334H73.6758V22.9707H69.2051ZM70.4971 29V20.5713C70.4971 19.915 70.6885 19.3796 71.0713 18.9648C71.4541 18.5501 72.0146 18.3428 72.7529 18.3428C72.9899 18.3428 73.2018 18.3633 73.3887 18.4043C73.5801 18.4408 73.751 18.4932 73.9014 18.5615L73.4023 19.7646C73.3203 19.7054 73.2246 19.6667 73.1152 19.6484C73.0104 19.6257 72.9056 19.6143 72.8008 19.6143C72.5182 19.6143 72.2949 19.7077 72.1309 19.8945C71.9714 20.0768 71.8916 20.3411 71.8916 20.6875V29H70.4971ZM75.0977 29V21.7334H76.4922V29H75.0977ZM75.7949 20.6396C75.5169 20.6396 75.2822 20.5439 75.0908 20.3525C74.904 20.1611 74.8105 19.9287 74.8105 19.6553C74.8105 19.3818 74.904 19.1494 75.0908 18.958C75.2822 18.7666 75.5169 18.6709 75.7949 18.6709C76.0684 18.6709 76.3008 18.7666 76.4922 18.958C76.6836 19.1494 76.7793 19.3818 76.7793 19.6553C76.7793 19.9287 76.6836 20.1611 76.4922 20.3525C76.3008 20.5439 76.0684 20.6396 75.7949 20.6396ZM79.917 29.1094C79.557 29.1094 79.2607 29.0342 79.0283 28.8838C78.7959 28.7288 78.6227 28.5101 78.5088 28.2275C78.3949 27.9404 78.3379 27.6032 78.3379 27.2158V18.4727H79.7324V27.168C79.7324 27.2637 79.7415 27.3662 79.7598 27.4756C79.778 27.5804 79.8236 27.6715 79.8965 27.749C79.9694 27.8219 80.0879 27.8584 80.252 27.8584C80.3112 27.8584 80.3659 27.8538 80.416 27.8447C80.4707 27.8311 80.5231 27.8174 80.5732 27.8037V29.0068C80.4912 29.0387 80.391 29.0638 80.2725 29.082C80.1585 29.1003 80.04 29.1094 79.917 29.1094ZM85.0166 29.1094C84.3102 29.1094 83.6859 28.9544 83.1436 28.6445C82.6058 28.3301 82.1842 27.8926 81.8789 27.332C81.5736 26.7669 81.4209 26.1084 81.4209 25.3564C81.4209 24.5954 81.5713 23.9368 81.8721 23.3809C82.1729 22.8249 82.5807 22.3942 83.0957 22.0889C83.6107 21.779 84.1849 21.624 84.8184 21.624C85.4382 21.624 85.9896 21.7653 86.4727 22.0479C86.9603 22.3304 87.3454 22.7246 87.6279 23.2305C87.9105 23.7318 88.0518 24.3128 88.0518 24.9736C88.0518 25.1559 88.0404 25.3245 88.0176 25.4795C87.9993 25.6299 87.9788 25.762 87.9561 25.876H82.4736V24.8232H86.7188C86.7188 24.4587 86.6413 24.1283 86.4863 23.832C86.3314 23.5312 86.1104 23.2943 85.8232 23.1211C85.5407 22.9434 85.2057 22.8545 84.8184 22.8545C84.4036 22.8545 84.0391 22.9593 83.7246 23.1689C83.4102 23.374 83.1641 23.6634 82.9863 24.0371C82.8132 24.4108 82.7266 24.846 82.7266 25.3428C82.7266 25.8486 82.82 26.293 83.0068 26.6758C83.1937 27.054 83.4603 27.3503 83.8066 27.5645C84.153 27.7741 84.5632 27.8789 85.0371 27.8789C85.3105 27.8789 85.5658 27.8447 85.8027 27.7764C86.0397 27.708 86.2516 27.6214 86.4385 27.5166C86.6253 27.4072 86.7848 27.2979 86.917 27.1885L87.4229 28.3848C87.1403 28.5853 86.7894 28.7562 86.3701 28.8975C85.9554 29.0387 85.5042 29.1094 85.0166 29.1094Z" fill="white"/>
<defs>
<linearGradient id="paint0_linear_1494_19132" x1="-3.91155e-07" y1="24" x2="105" y2="24" gradientUnits="userSpaceOnUse">
<stop stop-color="#8E2D8E"/>
<stop offset="1" stop-color="#A654CD"/>
</linearGradient>
</defs>
</svg>
