<svg width="56" height="48" viewBox="0 0 56 48" fill="none" xmlns="http://www.w3.org/2000/svg">
<rect width="56" height="48" rx="24" fill="#F2F2F2"/>
<path d="M28.1205 25.53C28.1005 25.53 28.0705 25.53 28.0505 25.53C28.0205 25.53 27.9805 25.53 27.9505 25.53C25.6805 25.46 23.9805 23.69 23.9805 21.51C23.9805 19.29 25.7905 17.48 28.0105 17.48C30.2305 17.48 32.0405 19.29 32.0405 21.51C32.0305 23.7 30.3205 25.46 28.1505 25.53C28.1305 25.53 28.1305 25.53 28.1205 25.53ZM28.0005 18.97C26.6005 18.97 25.4705 20.11 25.4705 21.5C25.4705 22.87 26.5405 23.98 27.9005 24.03C27.9305 24.02 28.0305 24.02 28.1305 24.03C29.4705 23.96 30.5205 22.86 30.5305 21.5C30.5305 20.11 29.4005 18.97 28.0005 18.97Z" fill="#292D32"/>
<path d="M28.0008 34.7501C25.3108 34.7501 22.7408 33.7501 20.7508 31.9301C20.5708 31.7701 20.4908 31.5301 20.5108 31.3001C20.6408 30.1101 21.3808 29.0001 22.6108 28.1801C25.5908 26.2001 30.4208 26.2001 33.3908 28.1801C34.6208 29.0101 35.3608 30.1101 35.4908 31.3001C35.5208 31.5401 35.4308 31.7701 35.2508 31.9301C33.2608 33.7501 30.6908 34.7501 28.0008 34.7501ZM22.0808 31.1001C23.7408 32.4901 25.8308 33.2501 28.0008 33.2501C30.1708 33.2501 32.2608 32.4901 33.9208 31.1001C33.7408 30.4901 33.2608 29.9001 32.5508 29.4201C30.0908 27.7801 25.9208 27.7801 23.4408 29.4201C22.7308 29.9001 22.2608 30.4901 22.0808 31.1001Z" fill="#292D32"/>
<path d="M28 34.75C22.07 34.75 17.25 29.93 17.25 24C17.25 18.07 22.07 13.25 28 13.25C33.93 13.25 38.75 18.07 38.75 24C38.75 29.93 33.93 34.75 28 34.75ZM28 14.75C22.9 14.75 18.75 18.9 18.75 24C18.75 29.1 22.9 33.25 28 33.25C33.1 33.25 37.25 29.1 37.25 24C37.25 18.9 33.1 14.75 28 14.75Z" fill="#292D32"/>
</svg>
