<svg width="32" height="32" viewBox="0 0 32 32" fill="none" xmlns="http://www.w3.org/2000/svg">
<path d="M28.9996 21H7.98213C8.31463 20.345 8.64838 19.6712 8.98213 18.9862C10.8484 19.1925 13.0596 17.8862 15.5746 15.0837C15.6496 15.2913 15.7334 15.505 15.8246 15.7212C16.6384 17.6275 17.6884 18.7137 18.9496 18.9525C20.2421 19.2025 21.5221 18.5487 22.8346 16.975C23.6871 17.9838 25.4371 19 28.9996 19C29.2648 19 29.5192 18.8946 29.7067 18.7071C29.8943 18.5196 29.9996 18.2652 29.9996 18C29.9996 17.7348 29.8943 17.4804 29.7067 17.2929C29.5192 17.1054 29.2648 17 28.9996 17C25.1709 17 24.0559 15.6762 23.9996 14.9725C23.9935 14.7399 23.9065 14.5167 23.7535 14.3413C23.6006 14.1659 23.3912 14.0494 23.1616 14.0118C22.9319 13.9742 22.6964 14.0179 22.4955 14.1353C22.2945 14.2527 22.1409 14.4365 22.0609 14.655C20.5396 16.9362 19.6384 17.0475 19.3109 16.9875C18.2696 16.7912 17.3009 14.3713 16.9746 12.7987C16.9319 12.6002 16.8298 12.4193 16.6817 12.2802C16.5337 12.1411 16.3468 12.0503 16.146 12.0201C15.9451 11.9898 15.7398 12.0214 15.5573 12.1107C15.3749 12.2 15.2239 12.3428 15.1246 12.52C12.6496 15.5975 10.9896 16.645 9.94838 16.9125C11.0096 14.5525 11.8021 12.4812 12.3096 10.7375C13.1621 7.8075 13.2246 5.75875 12.4984 4.475C12.1234 3.805 11.3371 3.00625 9.75963 3H9.72838C7.72838 3.01375 6.15338 4.9125 5.40088 8.2125C4.95213 10.1762 4.87838 12.3612 5.19713 14.2125C5.51588 16.0637 6.17963 17.4012 7.14088 18.1987C6.67588 19.165 6.19963 20.1088 5.73713 21.0025H2.99963C2.73441 21.0025 2.48006 21.1079 2.29252 21.2954C2.10499 21.4829 1.99963 21.7373 1.99963 22.0025C1.99963 22.2677 2.10499 22.5221 2.29252 22.7096C2.48006 22.8971 2.73441 23.0025 2.99963 23.0025H4.67588C3.26088 25.6275 2.16088 27.4575 2.14338 27.4875C2.07209 27.6001 2.02402 27.7258 2.00201 27.8573C1.98 27.9887 1.98449 28.1232 2.01521 28.2529C2.04593 28.3826 2.10227 28.5049 2.18091 28.6125C2.25955 28.7201 2.35891 28.8109 2.47314 28.8795C2.58738 28.9482 2.71418 28.9933 2.8461 29.0123C2.97803 29.0312 3.11241 29.0236 3.24135 28.9899C3.37029 28.9561 3.49119 28.897 3.59693 28.8159C3.70268 28.7347 3.79115 28.6333 3.85713 28.5175C3.87588 28.485 5.26588 26.1688 6.94463 23.0025H28.9996C29.2648 23.0025 29.5192 22.8971 29.7067 22.7096C29.8943 22.5221 29.9996 22.2677 29.9996 22.0025C29.9996 21.7373 29.8943 21.4829 29.7067 21.2954C29.5192 21.1079 29.2648 21.0025 28.9996 21.0025V21ZM23.9996 15V14.9738C24.0005 14.9825 24.0005 14.9913 23.9996 15ZM7.34838 8.6575C7.84713 6.4725 8.80963 5 9.74963 5C10.4059 5 10.6246 5.2325 10.7496 5.45875C11.1246 6.125 11.5646 8.4825 8.04338 16.255C7.01963 14.8437 6.67088 11.625 7.34838 8.6575Z" fill="#8E2D8E"/>
</svg>
