<svg width="100" height="100" viewBox="0 0 100 100" fill="none" xmlns="http://www.w3.org/2000/svg">
<rect width="100" height="100" rx="49.1667" fill="#EEEEEE"/>
<path d="M50 76.875C35.175 76.875 23.125 64.825 23.125 50C23.125 35.175 35.175 23.125 50 23.125C64.825 23.125 76.875 35.175 76.875 50C76.875 64.825 64.825 76.875 50 76.875ZM50 26.875C37.25 26.875 26.875 37.25 26.875 50C26.875 62.75 37.25 73.125 50 73.125C62.75 73.125 73.125 62.75 73.125 50C73.125 37.25 62.75 26.875 50 26.875Z" fill="#8B8D90"/>
<path d="M50 54.375C48.975 54.375 48.125 53.525 48.125 52.5V40C48.125 38.975 48.975 38.125 50 38.125C51.025 38.125 51.875 38.975 51.875 40V52.5C51.875 53.525 51.025 54.375 50 54.375Z" fill="#8B8D90"/>
<path d="M50 62.5002C49.675 62.5002 49.35 62.4252 49.05 62.3002C48.75 62.1752 48.475 62.0002 48.225 61.7752C48 61.5252 47.825 61.2752 47.7 60.9502C47.575 60.6502 47.5 60.3252 47.5 60.0002C47.5 59.6752 47.575 59.3502 47.7 59.0502C47.825 58.7502 48 58.4752 48.225 58.2252C48.475 58.0002 48.75 57.8252 49.05 57.7002C49.65 57.4502 50.35 57.4502 50.95 57.7002C51.25 57.8252 51.525 58.0002 51.775 58.2252C52 58.4752 52.175 58.7502 52.3 59.0502C52.425 59.3502 52.5 59.6752 52.5 60.0002C52.5 60.3252 52.425 60.6502 52.3 60.9502C52.175 61.2752 52 61.5252 51.775 61.7752C51.525 62.0002 51.25 62.1752 50.95 62.3002C50.65 62.4252 50.325 62.5002 50 62.5002Z" fill="#8B8D90"/>
</svg>
